<?xml version="1.0" standalone="no"?>
<!DOCTYPE svg PUBLIC "-//W3C//DTD SVG 20010904//EN"
 "http://www.w3.org/TR/2001/REC-SVG-20010904/DTD/svg10.dtd">
<svg version="1.0" xmlns="http://www.w3.org/2000/svg"
 width="499.000000pt" height="499.000000pt" viewBox="0 0 499.000000 499.000000"
 preserveAspectRatio="xMidYMid meet">
<metadata>
Created by potrace 1.11, written by Peter Selinger 2001-2013
</metadata>
<g transform="translate(0.000000,499.000000) scale(0.100000,-0.100000)"
fill="#000000" stroke="none">
<path d="M48 4953 c-14 -9 -31 -27 -37 -40 -16 -35 -15 -4806 0 -4836 7 -12
21 -29 33 -39 20 -16 147 -17 2444 -18 2637 0 2463 -4 2490 55 9 20 12 585 12
2421 0 2606 4 2435 -55 2462 -20 9 -590 12 -2443 12 -2234 -1 -2419 -2 -2444
-17z"/>
</g>
</svg>
